ISO-10303-21;
HEADER;
/* Generated by software containing ST-Developer
 * from STEP Tools, Inc. (www.steptools.com) 
 */

FILE_DESCRIPTION(
/* description */ ('STEP AP214'),
/* implementation_level */ '2;1');

FILE_NAME(
/* name */ 'Rueda_JGA25-370 v2.step',
/* time_stamp */ '2025-07-06T11:40:38-03:00',
/* author */ (''),
/* organization */ (''),
/* preprocessor_version */ 'ST-DEVELOPER v20.1',
/* originating_system */ 'Autodesk Translation Framework v14.10.0.0',
/* authorisation */ '');

FILE_SCHEMA (('AUTOMOTIVE_DESIGN { 1 0 10303 214 3 1 1 }'));
ENDSEC;

DATA;
#10=MECHANICAL_DESIGN_GEOMETRIC_PRESENTATION_REPRESENTATION('',(#19,#20,
#21,#22,#23,#24),#679);
#11=SHAPE_REPRESENTATION_RELATIONSHIP('SRR','None',#686,#12);
#12=ADVANCED_BREP_SHAPE_REPRESENTATION('',(#25,#26,#27,#28,#29,#30),#678);
#13=FACE_BOUND('',#77,.T.);
#14=FACE_BOUND('',#79,.T.);
#15=FACE_BOUND('',#83,.T.);
#16=FACE_BOUND('',#87,.T.);
#17=FACE_BOUND('',#89,.T.);
#18=FACE_BOUND('',#91,.T.);
#19=STYLED_ITEM('',(#695),#25);
#20=STYLED_ITEM('',(#695),#26);
#21=STYLED_ITEM('',(#695),#27);
#22=STYLED_ITEM('',(#695),#28);
#23=STYLED_ITEM('',(#695),#29);
#24=STYLED_ITEM('',(#695),#30);
#25=MANIFOLD_SOLID_BREP('Cuerpo3',#383);
#26=MANIFOLD_SOLID_BREP('Cuerpo4',#384);
#27=MANIFOLD_SOLID_BREP('Cuerpo5',#385);
#28=MANIFOLD_SOLID_BREP('Cuerpo2',#386);
#29=MANIFOLD_SOLID_BREP('Cuerpo6',#387);
#30=MANIFOLD_SOLID_BREP('Cuerpo7',#388);
#31=CYLINDRICAL_SURFACE('',#405,2.00000000000004);
#32=CYLINDRICAL_SURFACE('',#408,16.);
#33=CYLINDRICAL_SURFACE('',#411,17.0000002533197);
#34=CYLINDRICAL_SURFACE('',#416,16.1467189991363);
#35=CYLINDRICAL_SURFACE('',#419,17.0000001341105);
#36=CYLINDRICAL_SURFACE('',#423,14.5000000000001);
#37=CYLINDRICAL_SURFACE('',#426,17.0000002533197);
#38=CYLINDRICAL_SURFACE('',#435,17.);
#39=CYLINDRICAL_SURFACE('',#436,12.3999994248152);
#40=CYLINDRICAL_SURFACE('',#447,1.75);
#41=FACE_OUTER_BOUND('',#70,.T.);
#42=FACE_OUTER_BOUND('',#71,.T.);
#43=FACE_OUTER_BOUND('',#72,.T.);
#44=FACE_OUTER_BOUND('',#73,.T.);
#45=FACE_OUTER_BOUND('',#74,.T.);
#46=FACE_OUTER_BOUND('',#75,.T.);
#47=FACE_OUTER_BOUND('',#76,.T.);
#48=FACE_OUTER_BOUND('',#78,.T.);
#49=FACE_OUTER_BOUND('',#80,.T.);
#50=FACE_OUTER_BOUND('',#81,.T.);
#51=FACE_OUTER_BOUND('',#82,.T.);
#52=FACE_OUTER_BOUND('',#84,.T.);
#53=FACE_OUTER_BOUND('',#85,.T.);
#54=FACE_OUTER_BOUND('',#86,.T.);
#55=FACE_OUTER_BOUND('',#88,.T.);
#56=FACE_OUTER_BOUND('',#90,.T.);
#57=FACE_OUTER_BOUND('',#92,.T.);
#58=FACE_OUTER_BOUND('',#93,.T.);
#59=FACE_OUTER_BOUND('',#94,.T.);
#60=FACE_OUTER_BOUND('',#95,.T.);
#61=FACE_OUTER_BOUND('',#96,.T.);
#62=FACE_OUTER_BOUND('',#97,.T.);
#63=FACE_OUTER_BOUND('',#98,.T.);
#64=FACE_OUTER_BOUND('',#99,.T.);
#65=FACE_OUTER_BOUND('',#100,.T.);
#66=FACE_OUTER_BOUND('',#101,.T.);
#67=FACE_OUTER_BOUND('',#102,.T.);
#68=FACE_OUTER_BOUND('',#103,.T.);
#69=FACE_OUTER_BOUND('',#104,.T.);
#70=EDGE_LOOP('',(#247,#248));
#71=EDGE_LOOP('',(#249,#250,#251,#252));
#72=EDGE_LOOP('',(#253,#254,#255,#256));
#73=EDGE_LOOP('',(#257,#258));
#74=EDGE_LOOP('',(#259,#260,#261,#262));
#75=EDGE_LOOP('',(#263,#264,#265,#266));
#76=EDGE_LOOP('',(#267));
#77=EDGE_LOOP('',(#268));
#78=EDGE_LOOP('',(#269));
#79=EDGE_LOOP('',(#270));
#80=EDGE_LOOP('',(#271,#272,#273,#274));
#81=EDGE_LOOP('',(#275,#276,#277,#278));
#82=EDGE_LOOP('',(#279));
#83=EDGE_LOOP('',(#280));
#84=EDGE_LOOP('',(#281,#282,#283,#284));
#85=EDGE_LOOP('',(#285,#286,#287,#288));
#86=EDGE_LOOP('',(#289));
#87=EDGE_LOOP('',(#290));
#88=EDGE_LOOP('',(#291));
#89=EDGE_LOOP('',(#292));
#90=EDGE_LOOP('',(#293));
#91=EDGE_LOOP('',(#294));
#92=EDGE_LOOP('',(#295));
#93=EDGE_LOOP('',(#296,#297,#298,#299));
#94=EDGE_LOOP('',(#300,#301,#302,#303));
#95=EDGE_LOOP('',(#304));
#96=EDGE_LOOP('',(#305,#306,#307,#308));
#97=EDGE_LOOP('',(#309,#310,#311,#312));
#98=EDGE_LOOP('',(#313,#314,#315,#316));
#99=EDGE_LOOP('',(#317,#318,#319,#320));
#100=EDGE_LOOP('',(#321,#322,#323,#324));
#101=EDGE_LOOP('',(#325,#326,#327,#328));
#102=EDGE_LOOP('',(#329));
#103=EDGE_LOOP('',(#330,#331,#332,#333));
#104=EDGE_LOOP('',(#334));
#105=LINE('',#578,#130);
#106=LINE('',#581,#131);
#107=LINE('',#583,#132);
#108=LINE('',#584,#133);
#109=LINE('',#592,#134);
#110=LINE('',#598,#135);
#111=LINE('',#606,#136);
#112=LINE('',#612,#137);
#113=LINE('',#619,#138);
#114=LINE('',#623,#139);
#115=LINE('',#636,#140);
#116=LINE('',#640,#141);
#117=LINE('',#645,#142);
#118=LINE('',#647,#143);
#119=LINE('',#649,#144);
#120=LINE('',#650,#145);
#121=LINE('',#653,#146);
#122=LINE('',#655,#147);
#123=LINE('',#656,#148);
#124=LINE('',#659,#149);
#125=LINE('',#660,#150);
#126=LINE('',#663,#151);
#127=LINE('',#664,#152);
#128=LINE('',#666,#153);
#129=LINE('',#674,#154);
#130=VECTOR('',#456,10.);
#131=VECTOR('',#459,10.);
#132=VECTOR('',#460,10.);
#133=VECTOR('',#461,10.);
#134=VECTOR('',#472,16.);
#135=VECTOR('',#479,17.0000002533197);
#136=VECTOR('',#490,16.1467189991363);
#137=VECTOR('',#497,17.0000001341105);
#138=VECTOR('',#506,14.5000000000001);
#139=VECTOR('',#511,17.0000002533197);
#140=VECTOR('',#530,17.);
#141=VECTOR('',#535,12.3999994248152);
#142=VECTOR('',#540,10.);
#143=VECTOR('',#541,10.);
#144=VECTOR('',#542,10.);
#145=VECTOR('',#543,10.);
#146=VECTOR('',#546,10.);
#147=VECTOR('',#547,10.);
#148=VECTOR('',#548,10.);
#149=VECTOR('',#551,10.);
#150=VECTOR('',#552,10.);
#151=VECTOR('',#555,10.);
#152=VECTOR('',#556,10.);
#153=VECTOR('',#559,10.);
#154=VECTOR('',#570,1.75);
#155=CIRCLE('',#403,2.00000000000004);
#156=CIRCLE('',#406,2.00000000000004);
#157=CIRCLE('',#409,16.);
#158=CIRCLE('',#410,16.);
#159=CIRCLE('',#412,17.0000002533197);
#160=CIRCLE('',#413,17.0000002533197);
#161=CIRCLE('',#417,16.1467189991363);
#162=CIRCLE('',#418,16.1467189991363);
#163=CIRCLE('',#420,17.0000001341105);
#164=CIRCLE('',#421,17.0000002533197);
#165=CIRCLE('',#424,14.5000000000001);
#166=CIRCLE('',#425,14.5000000000001);
#167=CIRCLE('',#427,17.0000002533197);
#168=CIRCLE('',#431,17.);
#169=CIRCLE('',#432,12.3999994248152);
#170=CIRCLE('',#434,17.);
#171=CIRCLE('',#437,12.3999994248152);
#172=CIRCLE('',#446,1.75);
#173=CIRCLE('',#448,1.75);
#174=VERTEX_POINT('',#575);
#175=VERTEX_POINT('',#576);
#176=VERTEX_POINT('',#580);
#177=VERTEX_POINT('',#582);
#178=VERTEX_POINT('',#589);
#179=VERTEX_POINT('',#591);
#180=VERTEX_POINT('',#595);
#181=VERTEX_POINT('',#597);
#182=VERTEX_POINT('',#603);
#183=VERTEX_POINT('',#605);
#184=VERTEX_POINT('',#609);
#185=VERTEX_POINT('',#611);
#186=VERTEX_POINT('',#616);
#187=VERTEX_POINT('',#618);
#188=VERTEX_POINT('',#622);
#189=VERTEX_POINT('',#628);
#190=VERTEX_POINT('',#630);
#191=VERTEX_POINT('',#633);
#192=VERTEX_POINT('',#638);
#193=VERTEX_POINT('',#643);
#194=VERTEX_POINT('',#644);
#195=VERTEX_POINT('',#646);
#196=VERTEX_POINT('',#648);
#197=VERTEX_POINT('',#652);
#198=VERTEX_POINT('',#654);
#199=VERTEX_POINT('',#658);
#200=VERTEX_POINT('',#662);
#201=VERTEX_POINT('',#669);
#202=VERTEX_POINT('',#672);
#203=EDGE_CURVE('',#174,#175,#155,.T.);
#204=EDGE_CURVE('',#175,#174,#105,.T.);
#205=EDGE_CURVE('',#176,#175,#106,.T.);
#206=EDGE_CURVE('',#177,#176,#107,.T.);
#207=EDGE_CURVE('',#174,#177,#108,.T.);
#208=EDGE_CURVE('',#176,#177,#156,.T.);
#209=EDGE_CURVE('',#178,#178,#157,.T.);
#210=EDGE_CURVE('',#178,#179,#109,.T.);
#211=EDGE_CURVE('',#179,#179,#158,.T.);
#212=EDGE_CURVE('',#180,#180,#159,.T.);
#213=EDGE_CURVE('',#180,#181,#110,.T.);
#214=EDGE_CURVE('',#181,#181,#160,.T.);
#215=EDGE_CURVE('',#182,#182,#161,.T.);
#216=EDGE_CURVE('',#182,#183,#111,.T.);
#217=EDGE_CURVE('',#183,#183,#162,.T.);
#218=EDGE_CURVE('',#184,#184,#163,.T.);
#219=EDGE_CURVE('',#184,#185,#112,.T.);
#220=EDGE_CURVE('',#185,#185,#164,.T.);
#221=EDGE_CURVE('',#186,#186,#165,.T.);
#222=EDGE_CURVE('',#186,#187,#113,.T.);
#223=EDGE_CURVE('',#187,#187,#166,.T.);
#224=EDGE_CURVE('',#185,#188,#114,.T.);
#225=EDGE_CURVE('',#188,#188,#167,.T.);
#226=EDGE_CURVE('',#189,#189,#168,.T.);
#227=EDGE_CURVE('',#190,#190,#169,.T.);
#228=EDGE_CURVE('',#191,#191,#170,.T.);
#229=EDGE_CURVE('',#189,#191,#115,.T.);
#230=EDGE_CURVE('',#192,#192,#171,.T.);
#231=EDGE_CURVE('',#192,#190,#116,.T.);
#232=EDGE_CURVE('',#193,#194,#117,.T.);
#233=EDGE_CURVE('',#194,#195,#118,.T.);
#234=EDGE_CURVE('',#195,#196,#119,.T.);
#235=EDGE_CURVE('',#196,#193,#120,.T.);
#236=EDGE_CURVE('',#197,#194,#121,.T.);
#237=EDGE_CURVE('',#198,#197,#122,.T.);
#238=EDGE_CURVE('',#198,#195,#123,.T.);
#239=EDGE_CURVE('',#199,#198,#124,.T.);
#240=EDGE_CURVE('',#199,#196,#125,.T.);
#241=EDGE_CURVE('',#200,#199,#126,.T.);
#242=EDGE_CURVE('',#193,#200,#127,.T.);
#243=EDGE_CURVE('',#197,#200,#128,.T.);
#244=EDGE_CURVE('',#201,#201,#172,.T.);
#245=EDGE_CURVE('',#202,#202,#173,.T.);
#246=EDGE_CURVE('',#202,#201,#129,.T.);
#247=ORIENTED_EDGE('',*,*,#203,.T.);
#248=ORIENTED_EDGE('',*,*,#204,.T.);
#249=ORIENTED_EDGE('',*,*,#205,.F.);
#250=ORIENTED_EDGE('',*,*,#206,.F.);
#251=ORIENTED_EDGE('',*,*,#207,.F.);
#252=ORIENTED_EDGE('',*,*,#204,.F.);
#253=ORIENTED_EDGE('',*,*,#207,.T.);
#254=ORIENTED_EDGE('',*,*,#208,.F.);
#255=ORIENTED_EDGE('',*,*,#205,.T.);
#256=ORIENTED_EDGE('',*,*,#203,.F.);
#257=ORIENTED_EDGE('',*,*,#208,.T.);
#258=ORIENTED_EDGE('',*,*,#206,.T.);
#259=ORIENTED_EDGE('',*,*,#209,.F.);
#260=ORIENTED_EDGE('',*,*,#210,.T.);
#261=ORIENTED_EDGE('',*,*,#211,.F.);
#262=ORIENTED_EDGE('',*,*,#210,.F.);
#263=ORIENTED_EDGE('',*,*,#212,.F.);
#264=ORIENTED_EDGE('',*,*,#213,.T.);
#265=ORIENTED_EDGE('',*,*,#214,.F.);
#266=ORIENTED_EDGE('',*,*,#213,.F.);
#267=ORIENTED_EDGE('',*,*,#214,.T.);
#268=ORIENTED_EDGE('',*,*,#211,.T.);
#269=ORIENTED_EDGE('',*,*,#212,.T.);
#270=ORIENTED_EDGE('',*,*,#209,.T.);
#271=ORIENTED_EDGE('',*,*,#215,.F.);
#272=ORIENTED_EDGE('',*,*,#216,.T.);
#273=ORIENTED_EDGE('',*,*,#217,.F.);
#274=ORIENTED_EDGE('',*,*,#216,.F.);
#275=ORIENTED_EDGE('',*,*,#218,.F.);
#276=ORIENTED_EDGE('',*,*,#219,.T.);
#277=ORIENTED_EDGE('',*,*,#220,.T.);
#278=ORIENTED_EDGE('',*,*,#219,.F.);
#279=ORIENTED_EDGE('',*,*,#218,.T.);
#280=ORIENTED_EDGE('',*,*,#215,.T.);
#281=ORIENTED_EDGE('',*,*,#221,.F.);
#282=ORIENTED_EDGE('',*,*,#222,.T.);
#283=ORIENTED_EDGE('',*,*,#223,.T.);
#284=ORIENTED_EDGE('',*,*,#222,.F.);
#285=ORIENTED_EDGE('',*,*,#220,.F.);
#286=ORIENTED_EDGE('',*,*,#224,.T.);
#287=ORIENTED_EDGE('',*,*,#225,.T.);
#288=ORIENTED_EDGE('',*,*,#224,.F.);
#289=ORIENTED_EDGE('',*,*,#217,.T.);
#290=ORIENTED_EDGE('',*,*,#221,.T.);
#291=ORIENTED_EDGE('',*,*,#225,.F.);
#292=ORIENTED_EDGE('',*,*,#223,.F.);
#293=ORIENTED_EDGE('',*,*,#226,.T.);
#294=ORIENTED_EDGE('',*,*,#227,.F.);
#295=ORIENTED_EDGE('',*,*,#228,.T.);
#296=ORIENTED_EDGE('',*,*,#226,.F.);
#297=ORIENTED_EDGE('',*,*,#229,.T.);
#298=ORIENTED_EDGE('',*,*,#228,.F.);
#299=ORIENTED_EDGE('',*,*,#229,.F.);
#300=ORIENTED_EDGE('',*,*,#230,.F.);
#301=ORIENTED_EDGE('',*,*,#231,.T.);
#302=ORIENTED_EDGE('',*,*,#227,.T.);
#303=ORIENTED_EDGE('',*,*,#231,.F.);
#304=ORIENTED_EDGE('',*,*,#230,.T.);
#305=ORIENTED_EDGE('',*,*,#232,.T.);
#306=ORIENTED_EDGE('',*,*,#233,.T.);
#307=ORIENTED_EDGE('',*,*,#234,.T.);
#308=ORIENTED_EDGE('',*,*,#235,.T.);
#309=ORIENTED_EDGE('',*,*,#236,.F.);
#310=ORIENTED_EDGE('',*,*,#237,.F.);
#311=ORIENTED_EDGE('',*,*,#238,.T.);
#312=ORIENTED_EDGE('',*,*,#233,.F.);
#313=ORIENTED_EDGE('',*,*,#238,.F.);
#314=ORIENTED_EDGE('',*,*,#239,.F.);
#315=ORIENTED_EDGE('',*,*,#240,.T.);
#316=ORIENTED_EDGE('',*,*,#234,.F.);
#317=ORIENTED_EDGE('',*,*,#240,.F.);
#318=ORIENTED_EDGE('',*,*,#241,.F.);
#319=ORIENTED_EDGE('',*,*,#242,.F.);
#320=ORIENTED_EDGE('',*,*,#235,.F.);
#321=ORIENTED_EDGE('',*,*,#242,.T.);
#322=ORIENTED_EDGE('',*,*,#243,.F.);
#323=ORIENTED_EDGE('',*,*,#236,.T.);
#324=ORIENTED_EDGE('',*,*,#232,.F.);
#325=ORIENTED_EDGE('',*,*,#243,.T.);
#326=ORIENTED_EDGE('',*,*,#241,.T.);
#327=ORIENTED_EDGE('',*,*,#239,.T.);
#328=ORIENTED_EDGE('',*,*,#237,.T.);
#329=ORIENTED_EDGE('',*,*,#244,.T.);
#330=ORIENTED_EDGE('',*,*,#245,.F.);
#331=ORIENTED_EDGE('',*,*,#246,.T.);
#332=ORIENTED_EDGE('',*,*,#244,.F.);
#333=ORIENTED_EDGE('',*,*,#246,.F.);
#334=ORIENTED_EDGE('',*,*,#245,.T.);
#335=PLANE('',#402);
#336=PLANE('',#404);
#337=PLANE('',#407);
#338=PLANE('',#414);
#339=PLANE('',#415);
#340=PLANE('',#422);
#341=PLANE('',#428);
#342=PLANE('',#429);
#343=PLANE('',#430);
#344=PLANE('',#433);
#345=PLANE('',#438);
#346=PLANE('',#439);
#347=PLANE('',#440);
#348=PLANE('',#441);
#349=PLANE('',#442);
#350=PLANE('',#443);
#351=PLANE('',#444);
#352=PLANE('',#445);
#353=PLANE('',#449);
#354=ADVANCED_FACE('',(#41),#335,.T.);
#355=ADVANCED_FACE('',(#42),#336,.T.);
#356=ADVANCED_FACE('',(#43),#31,.T.);
#357=ADVANCED_FACE('',(#44),#337,.F.);
#358=ADVANCED_FACE('',(#45),#32,.F.);
#359=ADVANCED_FACE('',(#46),#33,.T.);
#360=ADVANCED_FACE('',(#47,#13),#338,.T.);
#361=ADVANCED_FACE('',(#48,#14),#339,.F.);
#362=ADVANCED_FACE('',(#49),#34,.F.);
#363=ADVANCED_FACE('',(#50),#35,.T.);
#364=ADVANCED_FACE('',(#51,#15),#340,.T.);
#365=ADVANCED_FACE('',(#52),#36,.F.);
#366=ADVANCED_FACE('',(#53),#37,.T.);
#367=ADVANCED_FACE('',(#54,#16),#341,.T.);
#368=ADVANCED_FACE('',(#55,#17),#342,.F.);
#369=ADVANCED_FACE('',(#56,#18),#343,.F.);
#370=ADVANCED_FACE('',(#57),#344,.T.);
#371=ADVANCED_FACE('',(#58),#38,.T.);
#372=ADVANCED_FACE('',(#59),#39,.T.);
#373=ADVANCED_FACE('',(#60),#345,.F.);
#374=ADVANCED_FACE('',(#61),#346,.T.);
#375=ADVANCED_FACE('',(#62),#347,.T.);
#376=ADVANCED_FACE('',(#63),#348,.T.);
#377=ADVANCED_FACE('',(#64),#349,.T.);
#378=ADVANCED_FACE('',(#65),#350,.T.);
#379=ADVANCED_FACE('',(#66),#351,.T.);
#380=ADVANCED_FACE('',(#67),#352,.F.);
#381=ADVANCED_FACE('',(#68),#40,.T.);
#382=ADVANCED_FACE('',(#69),#353,.T.);
#383=CLOSED_SHELL('',(#354,#355,#356,#357));
#384=CLOSED_SHELL('',(#358,#359,#360,#361));
#385=CLOSED_SHELL('',(#362,#363,#364,#365,#366,#367,#368));
#386=CLOSED_SHELL('',(#369,#370,#371,#372,#373));
#387=CLOSED_SHELL('',(#374,#375,#376,#377,#378,#379));
#388=CLOSED_SHELL('',(#380,#381,#382));
#389=DERIVED_UNIT_ELEMENT(#391,1.);
#390=DERIVED_UNIT_ELEMENT(#681,-3.);
#391=(
MASS_UNIT()
NAMED_UNIT(*)
SI_UNIT(.KILO.,.GRAM.)
);
#392=DERIVED_UNIT((#389,#390));
#393=MEASURE_REPRESENTATION_ITEM('density measure',
POSITIVE_RATIO_MEASURE(7850.),#392);
#394=PROPERTY_DEFINITION_REPRESENTATION(#399,#396);
#395=PROPERTY_DEFINITION_REPRESENTATION(#400,#397);
#396=REPRESENTATION('material name',(#398),#678);
#397=REPRESENTATION('density',(#393),#678);
#398=DESCRIPTIVE_REPRESENTATION_ITEM('Acero','Acero');
#399=PROPERTY_DEFINITION('material property','material name',#688);
#400=PROPERTY_DEFINITION('material property','density of part',#688);
#401=AXIS2_PLACEMENT_3D('',#573,#450,#451);
#402=AXIS2_PLACEMENT_3D('',#574,#452,#453);
#403=AXIS2_PLACEMENT_3D('',#577,#454,#455);
#404=AXIS2_PLACEMENT_3D('',#579,#457,#458);
#405=AXIS2_PLACEMENT_3D('',#585,#462,#463);
#406=AXIS2_PLACEMENT_3D('',#586,#464,#465);
#407=AXIS2_PLACEMENT_3D('',#587,#466,#467);
#408=AXIS2_PLACEMENT_3D('',#588,#468,#469);
#409=AXIS2_PLACEMENT_3D('',#590,#470,#471);
#410=AXIS2_PLACEMENT_3D('',#593,#473,#474);
#411=AXIS2_PLACEMENT_3D('',#594,#475,#476);
#412=AXIS2_PLACEMENT_3D('',#596,#477,#478);
#413=AXIS2_PLACEMENT_3D('',#599,#480,#481);
#414=AXIS2_PLACEMENT_3D('',#600,#482,#483);
#415=AXIS2_PLACEMENT_3D('',#601,#484,#485);
#416=AXIS2_PLACEMENT_3D('',#602,#486,#487);
#417=AXIS2_PLACEMENT_3D('',#604,#488,#489);
#418=AXIS2_PLACEMENT_3D('',#607,#491,#492);
#419=AXIS2_PLACEMENT_3D('',#608,#493,#494);
#420=AXIS2_PLACEMENT_3D('',#610,#495,#496);
#421=AXIS2_PLACEMENT_3D('',#613,#498,#499);
#422=AXIS2_PLACEMENT_3D('',#614,#500,#501);
#423=AXIS2_PLACEMENT_3D('',#615,#502,#503);
#424=AXIS2_PLACEMENT_3D('',#617,#504,#505);
#425=AXIS2_PLACEMENT_3D('',#620,#507,#508);
#426=AXIS2_PLACEMENT_3D('',#621,#509,#510);
#427=AXIS2_PLACEMENT_3D('',#624,#512,#513);
#428=AXIS2_PLACEMENT_3D('',#625,#514,#515);
#429=AXIS2_PLACEMENT_3D('',#626,#516,#517);
#430=AXIS2_PLACEMENT_3D('',#627,#518,#519);
#431=AXIS2_PLACEMENT_3D('',#629,#520,#521);
#432=AXIS2_PLACEMENT_3D('',#631,#522,#523);
#433=AXIS2_PLACEMENT_3D('',#632,#524,#525);
#434=AXIS2_PLACEMENT_3D('',#634,#526,#527);
#435=AXIS2_PLACEMENT_3D('',#635,#528,#529);
#436=AXIS2_PLACEMENT_3D('',#637,#531,#532);
#437=AXIS2_PLACEMENT_3D('',#639,#533,#534);
#438=AXIS2_PLACEMENT_3D('',#641,#536,#537);
#439=AXIS2_PLACEMENT_3D('',#642,#538,#539);
#440=AXIS2_PLACEMENT_3D('',#651,#544,#545);
#441=AXIS2_PLACEMENT_3D('',#657,#549,#550);
#442=AXIS2_PLACEMENT_3D('',#661,#553,#554);
#443=AXIS2_PLACEMENT_3D('',#665,#557,#558);
#444=AXIS2_PLACEMENT_3D('',#667,#560,#561);
#445=AXIS2_PLACEMENT_3D('',#668,#562,#563);
#446=AXIS2_PLACEMENT_3D('',#670,#564,#565);
#447=AXIS2_PLACEMENT_3D('',#671,#566,#567);
#448=AXIS2_PLACEMENT_3D('',#673,#568,#569);
#449=AXIS2_PLACEMENT_3D('',#675,#571,#572);
#450=DIRECTION('axis',(0.,0.,1.));
#451=DIRECTION('refdir',(1.,0.,0.));
#452=DIRECTION('center_axis',(-1.63057013612192E-32,-1.84889274661171E-32,
-1.));
#453=DIRECTION('ref_axis',(1.,0.,-1.63057013612192E-32));
#454=DIRECTION('center_axis',(-1.63057013612189E-32,-1.84889274661174E-32,
-1.));
#455=DIRECTION('ref_axis',(0.661437827766136,0.75000000000001,-2.46519032881562E-32));
#456=DIRECTION('',(1.,5.24531075531447E-16,-1.63057013612195E-32));
#457=DIRECTION('center_axis',(-5.24531075531447E-16,1.,0.));
#458=DIRECTION('ref_axis',(-1.,-5.24531075531447E-16,1.63057013612195E-32));
#459=DIRECTION('',(0.,0.,-1.));
#460=DIRECTION('',(-1.,-5.24531075531447E-16,1.63057013612195E-32));
#461=DIRECTION('',(0.,0.,1.));
#462=DIRECTION('center_axis',(0.,0.,1.));
#463=DIRECTION('ref_axis',(1.31838984174235E-15,-1.,0.));
#464=DIRECTION('center_axis',(1.63057013612189E-32,1.84889274661174E-32,
1.));
#465=DIRECTION('ref_axis',(0.661437827766136,0.75000000000001,-2.46519032881562E-32));
#466=DIRECTION('center_axis',(-1.63057013612192E-32,-1.84889274661171E-32,
-1.));
#467=DIRECTION('ref_axis',(1.,0.,-1.63057013612192E-32));
#468=DIRECTION('center_axis',(0.,0.,-1.));
#469=DIRECTION('ref_axis',(-1.,0.,0.));
#470=DIRECTION('center_axis',(0.,0.,1.));
#471=DIRECTION('ref_axis',(-1.,0.,0.));
#472=DIRECTION('',(0.,0.,1.));
#473=DIRECTION('center_axis',(0.,0.,-1.));
#474=DIRECTION('ref_axis',(-1.,0.,0.));
#475=DIRECTION('center_axis',(0.,0.,-1.));
#476=DIRECTION('ref_axis',(-1.,0.,0.));
#477=DIRECTION('center_axis',(0.,0.,-1.));
#478=DIRECTION('ref_axis',(-1.,0.,0.));
#479=DIRECTION('',(0.,0.,1.));
#480=DIRECTION('center_axis',(0.,0.,1.));
#481=DIRECTION('ref_axis',(-1.,0.,0.));
#482=DIRECTION('center_axis',(0.,0.,1.));
#483=DIRECTION('ref_axis',(-1.,0.,0.));
#484=DIRECTION('center_axis',(0.,0.,1.));
#485=DIRECTION('ref_axis',(-1.,0.,0.));
#486=DIRECTION('center_axis',(0.,0.,-1.));
#487=DIRECTION('ref_axis',(1.,0.,0.));
#488=DIRECTION('center_axis',(0.,0.,1.));
#489=DIRECTION('ref_axis',(1.,0.,0.));
#490=DIRECTION('',(0.,0.,1.));
#491=DIRECTION('center_axis',(0.,0.,-1.));
#492=DIRECTION('ref_axis',(1.,0.,0.));
#493=DIRECTION('center_axis',(0.,0.,-1.));
#494=DIRECTION('ref_axis',(1.,0.,0.));
#495=DIRECTION('center_axis',(0.,0.,-1.));
#496=DIRECTION('ref_axis',(1.,0.,0.));
#497=DIRECTION('',(0.,0.,1.));
#498=DIRECTION('center_axis',(0.,0.,-1.));
#499=DIRECTION('ref_axis',(1.,0.,0.));
#500=DIRECTION('center_axis',(0.,0.,-1.));
#501=DIRECTION('ref_axis',(1.,0.,0.));
#502=DIRECTION('center_axis',(0.,0.,-1.));
#503=DIRECTION('ref_axis',(1.,0.,0.));
#504=DIRECTION('center_axis',(0.,0.,1.));
#505=DIRECTION('ref_axis',(1.,0.,0.));
#506=DIRECTION('',(0.,0.,1.));
#507=DIRECTION('center_axis',(0.,0.,1.));
#508=DIRECTION('ref_axis',(1.,0.,0.));
#509=DIRECTION('center_axis',(0.,0.,-1.));
#510=DIRECTION('ref_axis',(1.,0.,0.));
#511=DIRECTION('',(0.,0.,1.));
#512=DIRECTION('center_axis',(0.,0.,-1.));
#513=DIRECTION('ref_axis',(1.,0.,0.));
#514=DIRECTION('center_axis',(0.,0.,-1.));
#515=DIRECTION('ref_axis',(1.,0.,0.));
#516=DIRECTION('center_axis',(0.,0.,-1.));
#517=DIRECTION('ref_axis',(1.,0.,0.));
#518=DIRECTION('center_axis',(0.,0.,1.));
#519=DIRECTION('ref_axis',(-1.,0.,0.));
#520=DIRECTION('center_axis',(0.,0.,-1.));
#521=DIRECTION('ref_axis',(-1.,0.,0.));
#522=DIRECTION('center_axis',(0.,0.,-1.));
#523=DIRECTION('ref_axis',(1.,0.,0.));
#524=DIRECTION('center_axis',(0.,0.,1.));
#525=DIRECTION('ref_axis',(-1.,0.,0.));
#526=DIRECTION('center_axis',(0.,0.,1.));
#527=DIRECTION('ref_axis',(-1.,0.,0.));
#528=DIRECTION('center_axis',(0.,0.,-1.));
#529=DIRECTION('ref_axis',(-1.,0.,0.));
#530=DIRECTION('',(0.,0.,1.));
#531=DIRECTION('center_axis',(0.,0.,-1.));
#532=DIRECTION('ref_axis',(1.,0.,0.));
#533=DIRECTION('center_axis',(0.,0.,-1.));
#534=DIRECTION('ref_axis',(1.,0.,0.));
#535=DIRECTION('',(0.,0.,1.));
#536=DIRECTION('center_axis',(0.,0.,1.));
#537=DIRECTION('ref_axis',(1.,0.,0.));
#538=DIRECTION('center_axis',(0.,0.,-1.));
#539=DIRECTION('ref_axis',(-1.,0.,0.));
#540=DIRECTION('',(-1.,0.,0.));
#541=DIRECTION('',(0.,1.,0.));
#542=DIRECTION('',(1.,0.,0.));
#543=DIRECTION('',(0.,-1.,0.));
#544=DIRECTION('center_axis',(-1.,0.,0.));
#545=DIRECTION('ref_axis',(0.,-1.,0.));
#546=DIRECTION('',(0.,0.,-1.));
#547=DIRECTION('',(0.,-1.,0.));
#548=DIRECTION('',(0.,0.,-1.));
#549=DIRECTION('center_axis',(0.,1.,0.));
#550=DIRECTION('ref_axis',(-1.,0.,0.));
#551=DIRECTION('',(-1.,0.,0.));
#552=DIRECTION('',(0.,0.,-1.));
#553=DIRECTION('center_axis',(1.,0.,0.));
#554=DIRECTION('ref_axis',(0.,1.,0.));
#555=DIRECTION('',(0.,1.,0.));
#556=DIRECTION('',(0.,0.,1.));
#557=DIRECTION('center_axis',(0.,-1.,0.));
#558=DIRECTION('ref_axis',(1.,0.,0.));
#559=DIRECTION('',(1.,0.,0.));
#560=DIRECTION('center_axis',(0.,0.,1.));
#561=DIRECTION('ref_axis',(1.,0.,0.));
#562=DIRECTION('center_axis',(0.,1.,0.));
#563=DIRECTION('ref_axis',(-1.,0.,0.));
#564=DIRECTION('center_axis',(0.,-1.,0.));
#565=DIRECTION('ref_axis',(-1.,0.,0.));
#566=DIRECTION('center_axis',(0.,1.,0.));
#567=DIRECTION('ref_axis',(-1.,0.,0.));
#568=DIRECTION('center_axis',(0.,1.,0.));
#569=DIRECTION('ref_axis',(-1.,0.,0.));
#570=DIRECTION('',(0.,-1.,0.));
#571=DIRECTION('center_axis',(0.,1.,0.));
#572=DIRECTION('ref_axis',(-1.,0.,0.));
#573=CARTESIAN_POINT('',(0.,0.,0.));
#574=CARTESIAN_POINT('Origin',(8.00000000000001,-0.25000000000004,-25.65));
#575=CARTESIAN_POINT('',(9.32287565553231,1.5,-25.65));
#576=CARTESIAN_POINT('',(6.67712434446772,1.5,-25.65));
#577=CARTESIAN_POINT('Origin',(8.00000000000001,-4.63182771466977E-14,-25.65));
#578=CARTESIAN_POINT('',(9.32287565553231,1.5,-25.65));
#579=CARTESIAN_POINT('Origin',(9.32287565553231,1.5,-25.45));
#580=CARTESIAN_POINT('',(6.67712434446772,1.5,-15.95));
#581=CARTESIAN_POINT('',(6.67712434446772,1.5,-25.45));
#582=CARTESIAN_POINT('',(9.32287565553231,1.5,-15.95));
#583=CARTESIAN_POINT('',(9.32287565553231,1.5,-15.95));
#584=CARTESIAN_POINT('',(9.32287565553231,1.5,-25.45));
#585=CARTESIAN_POINT('Origin',(8.00000000000001,-4.63182771466977E-14,-25.45));
#586=CARTESIAN_POINT('Origin',(8.00000000000001,-4.63182771466977E-14,-15.95));
#587=CARTESIAN_POINT('Origin',(8.00000000000001,-0.25000000000004,-15.95));
#588=CARTESIAN_POINT('Origin',(8.00000011920929,0.,0.3));
#589=CARTESIAN_POINT('',(24.0000001192093,1.95943487863577E-15,-2.));
#590=CARTESIAN_POINT('Origin',(8.00000011920929,0.,-2.));
#591=CARTESIAN_POINT('',(24.0000001192093,1.95943487863577E-15,0.3));
#592=CARTESIAN_POINT('',(24.0000001192093,-1.95943487863577E-15,0.3));
#593=CARTESIAN_POINT('Origin',(8.00000011920929,0.,0.3));
#594=CARTESIAN_POINT('Origin',(8.00000011920929,0.,0.3));
#595=CARTESIAN_POINT('',(25.000000372529,2.08189958957322E-15,-2.));
#596=CARTESIAN_POINT('Origin',(8.00000011920929,0.,-2.));
#597=CARTESIAN_POINT('',(25.000000372529,2.08189958957322E-15,0.3));
#598=CARTESIAN_POINT('',(25.000000372529,-2.08189958957322E-15,0.3));
#599=CARTESIAN_POINT('Origin',(8.00000011920929,0.,0.3));
#600=CARTESIAN_POINT('Origin',(8.00000011920929,0.,0.3));
#601=CARTESIAN_POINT('Origin',(8.00000011920929,0.,-2.));
#602=CARTESIAN_POINT('Origin',(8.00000000000001,-4.63182771466977E-14,-24.));
#603=CARTESIAN_POINT('',(-8.14671899913632,-4.43408743727953E-14,-26.));
#604=CARTESIAN_POINT('Origin',(8.00000000000001,-4.63182771466977E-14,-26.));
#605=CARTESIAN_POINT('',(-8.14671899913632,-4.43408743727953E-14,-24.));
#606=CARTESIAN_POINT('',(-8.14671899913632,-4.43408743727953E-14,-24.));
#607=CARTESIAN_POINT('Origin',(8.00000000000001,-4.63182771466977E-14,-24.));
#608=CARTESIAN_POINT('Origin',(8.00000000000001,-4.63182771466977E-14,-24.));
#609=CARTESIAN_POINT('',(-9.00000013411045,-4.42363775717234E-14,-26.));
#610=CARTESIAN_POINT('Origin',(8.00000000000001,-4.63182771466977E-14,-26.));
#611=CARTESIAN_POINT('',(-9.00000013411045,2.08189958957322E-15,-24.));
#612=CARTESIAN_POINT('',(-9.00000013411045,-4.42363775717234E-14,-24.));
#613=CARTESIAN_POINT('Origin',(8.00000011920929,0.,-24.));
#614=CARTESIAN_POINT('Origin',(8.00000000000001,-4.66293670342566E-14,-26.));
#615=CARTESIAN_POINT('Origin',(8.00000000000001,-4.63182771466977E-14,-2.));
#616=CARTESIAN_POINT('',(-6.50000000000008,-4.4542539287934E-14,-24.));
#617=CARTESIAN_POINT('Origin',(8.00000000000001,-4.63182771466977E-14,-24.));
#618=CARTESIAN_POINT('',(-6.50000000000008,-4.4542539287934E-14,-2.));
#619=CARTESIAN_POINT('',(-6.50000000000008,-4.4542539287934E-14,-2.));
#620=CARTESIAN_POINT('Origin',(8.00000000000001,-4.63182771466977E-14,-2.));
#621=CARTESIAN_POINT('Origin',(8.00000011920929,0.,-2.));
#622=CARTESIAN_POINT('',(-9.00000013411045,2.08189958957322E-15,-2.));
#623=CARTESIAN_POINT('',(-9.00000013411045,2.08189958957322E-15,-2.));
#624=CARTESIAN_POINT('Origin',(8.00000011920929,0.,-2.));
#625=CARTESIAN_POINT('Origin',(8.00000011920929,0.,-24.));
#626=CARTESIAN_POINT('Origin',(8.00000011920929,0.,-2.));
#627=CARTESIAN_POINT('Origin',(8.00000011920929,0.,-0.4));
#628=CARTESIAN_POINT('',(25.0000001192093,2.0818995585505E-15,-0.4));
#629=CARTESIAN_POINT('Origin',(8.00000011920929,0.,-0.4));
#630=CARTESIAN_POINT('',(-4.39999930560589,1.51856196050289E-15,-0.4));
#631=CARTESIAN_POINT('Origin',(8.00000011920929,0.,-0.4));
#632=CARTESIAN_POINT('Origin',(8.00000011920929,0.,0.3));
#633=CARTESIAN_POINT('',(25.0000001192093,2.0818995585505E-15,0.3));
#634=CARTESIAN_POINT('Origin',(8.00000011920929,0.,0.3));
#635=CARTESIAN_POINT('Origin',(8.00000011920929,0.,0.));
#636=CARTESIAN_POINT('',(25.0000001192093,-2.0818995585505E-15,0.));
#637=CARTESIAN_POINT('Origin',(8.00000011920929,0.,0.));
#638=CARTESIAN_POINT('',(-4.39999930560589,-1.51856196050289E-15,-16.4));
#639=CARTESIAN_POINT('Origin',(8.00000011920929,0.,-16.4));
#640=CARTESIAN_POINT('',(-4.39999930560589,1.51856196050289E-15,0.));
#641=CARTESIAN_POINT('Origin',(8.00000011920929,0.,-16.4));
#642=CARTESIAN_POINT('Origin',(8.00000000000001,4.8,-25.65));
#643=CARTESIAN_POINT('',(10.8,3.5,-25.65));
#644=CARTESIAN_POINT('',(5.20000000000001,3.5,-25.65));
#645=CARTESIAN_POINT('',(5.20000000000001,3.5,-25.65));
#646=CARTESIAN_POINT('',(5.20000000000001,6.1,-25.65));
#647=CARTESIAN_POINT('',(5.20000000000001,6.1,-25.65));
#648=CARTESIAN_POINT('',(10.8,6.1,-25.65));
#649=CARTESIAN_POINT('',(10.8,6.1,-25.65));
#650=CARTESIAN_POINT('',(10.8,3.5,-25.65));
#651=CARTESIAN_POINT('Origin',(5.20000000000001,6.1,-25.45));
#652=CARTESIAN_POINT('',(5.20000000000001,3.5,-5.44999999999999));
#653=CARTESIAN_POINT('',(5.20000000000001,3.5,-25.45));
#654=CARTESIAN_POINT('',(5.20000000000001,6.1,-5.44999999999999));
#655=CARTESIAN_POINT('',(5.20000000000001,6.1,-5.44999999999999));
#656=CARTESIAN_POINT('',(5.20000000000001,6.1,-25.45));
#657=CARTESIAN_POINT('Origin',(10.8,6.1,-25.45));
#658=CARTESIAN_POINT('',(10.8,6.1,-5.44999999999999));
#659=CARTESIAN_POINT('',(10.8,6.1,-5.44999999999999));
#660=CARTESIAN_POINT('',(10.8,6.1,-25.45));
#661=CARTESIAN_POINT('Origin',(10.8,3.5,-25.45));
#662=CARTESIAN_POINT('',(10.8,3.5,-5.44999999999999));
#663=CARTESIAN_POINT('',(10.8,3.5,-5.44999999999999));
#664=CARTESIAN_POINT('',(10.8,3.5,-25.45));
#665=CARTESIAN_POINT('Origin',(5.20000000000001,3.5,-25.45));
#666=CARTESIAN_POINT('',(5.20000000000001,3.5,-5.44999999999999));
#667=CARTESIAN_POINT('Origin',(8.00000000000001,4.8,-5.44999999999999));
#668=CARTESIAN_POINT('Origin',(8.00000000000001,1.5,-20.95));
#669=CARTESIAN_POINT('',(9.75000000000001,1.5,-20.95));
#670=CARTESIAN_POINT('Origin',(8.00000000000001,1.5,-20.95));
#671=CARTESIAN_POINT('Origin',(8.00000000000001,3.5,-20.95));
#672=CARTESIAN_POINT('',(9.75000000000001,14.5,-20.95));
#673=CARTESIAN_POINT('Origin',(8.00000000000001,14.5,-20.95));
#674=CARTESIAN_POINT('',(9.75000000000001,3.5,-20.95));
#675=CARTESIAN_POINT('Origin',(8.00000000000001,14.5,-20.95));
#676=UNCERTAINTY_MEASURE_WITH_UNIT(LENGTH_MEASURE(0.01),#680,
'DISTANCE_ACCURACY_VALUE',
'Maximum model space distance between geometric entities at asserted c
onnectivities');
#677=UNCERTAINTY_MEASURE_WITH_UNIT(LENGTH_MEASURE(0.01),#680,
'DISTANCE_ACCURACY_VALUE',
'Maximum model space distance between geometric entities at asserted c
onnectivities');
#678=(
GEOMETRIC_REPRESENTATION_CONTEXT(3)
GLOBAL_UNCERTAINTY_ASSIGNED_CONTEXT((#676))
GLOBAL_UNIT_ASSIGNED_CONTEXT((#680,#682,#683))
REPRESENTATION_CONTEXT('','3D')
);
#679=(
GEOMETRIC_REPRESENTATION_CONTEXT(3)
GLOBAL_UNCERTAINTY_ASSIGNED_CONTEXT((#677))
GLOBAL_UNIT_ASSIGNED_CONTEXT((#680,#682,#683))
REPRESENTATION_CONTEXT('','3D')
);
#680=(
LENGTH_UNIT()
NAMED_UNIT(*)
SI_UNIT(.MILLI.,.METRE.)
);
#681=(
LENGTH_UNIT()
NAMED_UNIT(*)
SI_UNIT($,.METRE.)
);
#682=(
NAMED_UNIT(*)
PLANE_ANGLE_UNIT()
SI_UNIT($,.RADIAN.)
);
#683=(
NAMED_UNIT(*)
SI_UNIT($,.STERADIAN.)
SOLID_ANGLE_UNIT()
);
#684=SHAPE_DEFINITION_REPRESENTATION(#685,#686);
#685=PRODUCT_DEFINITION_SHAPE('',$,#688);
#686=SHAPE_REPRESENTATION('',(#401),#678);
#687=PRODUCT_DEFINITION_CONTEXT('part definition',#692,'design');
#688=PRODUCT_DEFINITION('Rueda_JGA25-370','Rueda_JGA25-370 v2',#689,#687);
#689=PRODUCT_DEFINITION_FORMATION('',$,#694);
#690=PRODUCT_RELATED_PRODUCT_CATEGORY('Rueda_JGA25-370 v2',
'Rueda_JGA25-370 v2',(#694));
#691=APPLICATION_PROTOCOL_DEFINITION('international standard',
'automotive_design',2009,#692);
#692=APPLICATION_CONTEXT(
'Core Data for Automotive Mechanical Design Process');
#693=PRODUCT_CONTEXT('part definition',#692,'mechanical');
#694=PRODUCT('Rueda_JGA25-370','Rueda_JGA25-370 v2','STEP AP214',(#693));
#695=PRESENTATION_STYLE_ASSIGNMENT((#697));
#696=PRESENTATION_STYLE_ASSIGNMENT((#698));
#697=SURFACE_STYLE_USAGE(.BOTH.,#699);
#698=SURFACE_STYLE_USAGE(.BOTH.,#700);
#699=SURFACE_SIDE_STYLE('',(#701));
#700=SURFACE_SIDE_STYLE('',(#702));
#701=SURFACE_STYLE_FILL_AREA(#703);
#702=SURFACE_STYLE_FILL_AREA(#704);
#703=FILL_AREA_STYLE('Acero - Satinado',(#705));
#704=FILL_AREA_STYLE('Opaque(255,255,255)',(#706));
#705=FILL_AREA_STYLE_COLOUR('Acero - Satinado',#707);
#706=FILL_AREA_STYLE_COLOUR('Opaque(255,255,255)',#708);
#707=COLOUR_RGB('Acero - Satinado',0.627450980392157,0.627450980392157,
0.627450980392157);
#708=COLOUR_RGB('Opaque(255,255,255)',1.,1.,1.);
ENDSEC;
END-ISO-10303-21;
